<svg width="188" height="80" viewBox="0 0 188 80" fill="none" xmlns="http://www.w3.org/2000/svg">
<path fill-rule="evenodd" clip-rule="evenodd" d="M37.3999 29C39.946 15.4794 50.2668 5.8 62 5.8C73.7332 5.8 84.054 15.4794 86.6001 29H92.2743C89.6379 12.871 77.3724 0.199997 62 0.199997C46.6276 0.199997 34.3621 12.871 31.7257 29H37.3999Z" fill="#F2780D"/>
<path d="M15.498 30.18V32.826H14.952C14.196 32.826 13.566 32.924 13.062 33.12C12.558 33.288 12.306 33.652 12.306 34.212V56.934H16.506C17.626 56.934 18.522 56.892 19.194 56.808C19.894 56.696 20.412 56.514 20.748 56.262C21.112 55.982 21.322 55.59 21.378 55.086L21.882 50.046H25.284V60H1.302V57.354H1.722C2.422 57.354 3.01 57.27 3.486 57.102C3.962 56.906 4.2 56.5 4.2 55.884V34.296C4.2 33.68 3.962 33.288 3.486 33.12C3.01 32.924 2.422 32.826 1.722 32.826H1.302V30.18H15.498ZM33.5921 35.472C32.3321 35.472 31.3241 35.164 30.5681 34.548C29.8121 33.932 29.4341 33.092 29.4341 32.028C29.4341 30.936 29.8121 30.082 30.5681 29.466C31.3241 28.85 32.3321 28.542 33.5921 28.542C34.8801 28.542 35.8881 28.85 36.6161 29.466C37.3721 30.082 37.7501 30.936 37.7501 32.028C37.7501 33.092 37.3721 33.932 36.6161 34.548C35.8881 35.164 34.8801 35.472 33.5921 35.472ZM37.5401 38.454V56.304C37.5401 56.808 37.7501 57.144 38.1701 57.312C38.6181 57.452 39.1501 57.522 39.7661 57.522H39.8081V60H27.6281V57.522H27.6701C28.2861 57.522 28.8041 57.452 29.2241 57.312C29.6441 57.144 29.8541 56.808 29.8541 56.304V42.486C29.8541 42.038 29.7001 41.73 29.3921 41.562C29.1121 41.394 28.6361 41.24 27.9641 41.1L27.5861 41.016V38.454H37.5401ZM41.0704 38.454H57.7024V41.31H41.0704V38.454ZM59.1304 28.962V32.112C58.8504 32 58.4164 31.874 57.8284 31.734C57.2684 31.566 56.6384 31.482 55.9384 31.482C55.1544 31.482 54.4824 31.636 53.9224 31.944C53.3904 32.224 52.9704 32.686 52.6624 33.33C52.3824 33.974 52.2424 34.842 52.2424 35.934V57.144C52.2424 57.228 52.3824 57.312 52.6624 57.396C52.9704 57.452 53.3624 57.494 53.8384 57.522C54.3144 57.522 54.8044 57.522 55.3084 57.522H55.7704V60H41.5744V57.522H42.0364C42.8484 57.522 43.4784 57.424 43.9264 57.228C44.3744 57.032 44.5984 56.682 44.5984 56.178V36.774C44.5984 34.702 45.0604 33.064 45.9844 31.86C46.9364 30.656 48.1824 29.788 49.7224 29.256C51.2904 28.724 53.0124 28.458 54.8884 28.458C55.8124 28.458 56.6524 28.514 57.4084 28.626C58.1924 28.71 58.7664 28.822 59.1304 28.962ZM66.4519 49.332C66.4519 50.592 66.5639 51.726 66.7879 52.734C67.0119 53.714 67.3619 54.54 67.8379 55.212C68.3139 55.856 68.9019 56.346 69.6019 56.682C70.3299 57.018 71.1839 57.186 72.1639 57.186C73.1719 57.186 74.0399 57.004 74.7679 56.64C75.4959 56.248 76.1259 55.744 76.6579 55.128C77.2179 54.512 77.6659 53.882 78.0019 53.238L80.5219 55.002C79.9899 56.066 79.2899 57.004 78.4219 57.816C77.5539 58.628 76.5039 59.272 75.2719 59.748C74.0679 60.196 72.6259 60.42 70.9459 60.42C68.5099 60.42 66.3679 59.972 64.5199 59.076C62.6999 58.18 61.2859 56.892 60.2779 55.212C59.2699 53.532 58.7659 51.558 58.7659 49.29C58.7659 47.022 59.2559 45.048 60.2359 43.368C61.2159 41.688 62.5739 40.386 64.3099 39.462C66.0459 38.51 68.0059 38.034 70.1899 38.034C71.9539 38.034 73.4939 38.286 74.8099 38.79C76.1259 39.294 77.2319 40.064 78.1279 41.1C79.0519 42.108 79.7519 43.382 80.2279 44.922C80.7039 46.462 80.9419 48.24 80.9419 50.256H65.1919V47.442H74.7259L73.8019 48.534C73.7739 47.106 73.6899 45.916 73.5499 44.964C73.4099 44.012 73.1999 43.256 72.9199 42.696C72.6399 42.108 72.2899 41.702 71.8699 41.478C71.4499 41.226 70.9459 41.1 70.3579 41.1C69.7699 41.1 69.2379 41.254 68.7619 41.562C68.2859 41.87 67.8659 42.36 67.5019 43.032C67.1659 43.676 66.8999 44.516 66.7039 45.552C66.5359 46.588 66.4519 47.848 66.4519 49.332ZM118.009 49.332C118.009 50.592 118.121 51.726 118.345 52.734C118.569 53.714 118.919 54.54 119.395 55.212C119.871 55.856 120.459 56.346 121.159 56.682C121.887 57.018 122.741 57.186 123.721 57.186C124.729 57.186 125.597 57.004 126.325 56.64C127.053 56.248 127.683 55.744 128.215 55.128C128.775 54.512 129.223 53.882 129.559 53.238L132.079 55.002C131.547 56.066 130.847 57.004 129.979 57.816C129.111 58.628 128.061 59.272 126.829 59.748C125.625 60.196 124.183 60.42 122.503 60.42C120.067 60.42 117.925 59.972 116.077 59.076C114.257 58.18 112.843 56.892 111.835 55.212C110.827 53.532 110.323 51.558 110.323 49.29C110.323 47.022 110.813 45.048 111.793 43.368C112.773 41.688 114.131 40.386 115.867 39.462C117.603 38.51 119.563 38.034 121.747 38.034C123.511 38.034 125.051 38.286 126.367 38.79C127.683 39.294 128.789 40.064 129.685 41.1C130.609 42.108 131.309 43.382 131.785 44.922C132.261 46.462 132.499 48.24 132.499 50.256H116.749V47.442H126.283L125.359 48.534C125.331 47.106 125.247 45.916 125.107 44.964C124.967 44.012 124.757 43.256 124.477 42.696C124.197 42.108 123.847 41.702 123.427 41.478C123.007 41.226 122.503 41.1 121.915 41.1C121.327 41.1 120.795 41.254 120.319 41.562C119.843 41.87 119.423 42.36 119.059 43.032C118.723 43.676 118.457 44.516 118.261 45.552C118.093 46.588 118.009 47.848 118.009 49.332ZM148.796 47.022V49.458C147.844 49.57 146.99 49.738 146.234 49.962C145.478 50.158 144.82 50.396 144.26 50.676C143.728 50.956 143.28 51.278 142.916 51.642C142.552 52.006 142.286 52.412 142.118 52.86C141.95 53.308 141.866 53.812 141.866 54.372C141.866 55.016 141.964 55.548 142.16 55.968C142.384 56.388 142.692 56.71 143.084 56.934C143.476 57.158 143.938 57.27 144.47 57.27C145.114 57.27 145.688 57.102 146.192 56.766C146.724 56.402 147.2 55.898 147.62 55.254C148.04 54.61 148.404 53.854 148.712 52.986L148.838 55.716C148.446 56.696 147.928 57.55 147.284 58.278C146.64 58.978 145.856 59.51 144.932 59.874C144.008 60.238 142.944 60.42 141.74 60.42C140.284 60.42 139.024 60.21 137.96 59.79C136.924 59.342 136.126 58.698 135.566 57.858C135.006 56.99 134.726 55.94 134.726 54.708C134.726 53.532 135.02 52.524 135.608 51.684C136.224 50.816 137.12 50.088 138.296 49.5C139.472 48.912 140.942 48.422 142.706 48.03C144.47 47.638 146.5 47.302 148.796 47.022ZM148.376 60V55.884L147.872 55.926V44.334C147.872 43.55 147.76 42.92 147.536 42.444C147.312 41.94 146.962 41.576 146.486 41.352C146.038 41.128 145.478 41.016 144.806 41.016C143.798 41.016 142.958 41.24 142.286 41.688C141.614 42.108 141.11 42.64 140.774 43.284C140.55 43.004 140.424 42.738 140.396 42.486C140.396 42.206 140.452 41.954 140.564 41.73C140.704 41.506 140.9 41.31 141.152 41.142C141.432 40.974 141.754 40.848 142.118 40.764V45.342H136.196V40.806C136.616 40.498 137.232 40.134 138.044 39.714C138.856 39.266 139.892 38.874 141.152 38.538C142.44 38.202 143.924 38.034 145.604 38.034C147.032 38.034 148.334 38.174 149.51 38.454C150.714 38.734 151.75 39.182 152.618 39.798C153.486 40.386 154.158 41.156 154.634 42.108C155.11 43.032 155.348 44.152 155.348 45.468V56.136C155.348 56.444 155.432 56.682 155.6 56.85C155.768 57.018 155.992 57.144 156.272 57.228C156.58 57.284 156.958 57.34 157.406 57.396L157.574 57.438V60H148.376ZM171.977 69.366H158.999V66.888H159.041C159.461 66.888 159.839 66.846 160.175 66.762C160.511 66.706 160.763 66.58 160.931 66.384C161.127 66.216 161.225 65.978 161.225 65.67V42.486C161.225 42.178 161.155 41.954 161.015 41.814C160.903 41.646 160.707 41.506 160.427 41.394C160.147 41.282 159.783 41.184 159.335 41.1L158.999 41.016V38.454H168.407V43.914L168.911 43.998V66.51C168.911 66.594 169.051 66.664 169.331 66.72C169.639 66.776 169.989 66.818 170.381 66.846C170.773 66.874 171.137 66.888 171.473 66.888H171.977V69.366ZM175.043 60.42C173.923 60.42 172.929 60.28 172.061 60C171.193 59.72 170.409 59.3 169.709 58.74C169.009 58.152 168.365 57.396 167.777 56.472L168.029 51.936C168.449 52.944 168.883 53.812 169.331 54.54C169.779 55.268 170.297 55.828 170.885 56.22C171.501 56.612 172.201 56.808 172.985 56.808C173.685 56.808 174.301 56.64 174.833 56.304C175.365 55.94 175.799 55.408 176.135 54.708C176.471 54.008 176.723 53.182 176.891 52.23C177.059 51.278 177.143 50.2 177.143 48.996C177.143 47.792 177.059 46.742 176.891 45.846C176.723 44.95 176.471 44.194 176.135 43.578C175.827 42.934 175.435 42.458 174.959 42.15C174.483 41.842 173.923 41.688 173.279 41.688C172.495 41.688 171.795 41.912 171.179 42.36C170.563 42.78 169.989 43.396 169.457 44.208C168.953 44.992 168.449 45.958 167.945 47.106L167.777 43.2C168.449 42.024 169.149 41.058 169.877 40.302C170.605 39.546 171.417 38.986 172.313 38.622C173.237 38.23 174.287 38.034 175.463 38.034C177.395 38.034 179.075 38.496 180.503 39.42C181.931 40.316 183.037 41.59 183.821 43.242C184.605 44.866 184.997 46.784 184.997 48.996C184.997 51.236 184.577 53.224 183.737 54.96C182.897 56.668 181.735 58.012 180.251 58.992C178.767 59.944 177.031 60.42 175.043 60.42Z" fill="#046E8F"/>
<path d="M97.5703 30.18V32.826H97.0243C96.2683 32.826 95.6383 32.924 95.1343 33.12C94.6303 33.288 94.3783 33.652 94.3783 34.212V56.934H98.5783C99.6983 56.934 100.594 56.892 101.266 56.808C101.966 56.696 102.484 56.514 102.82 56.262C103.184 55.982 103.394 55.59 103.45 55.086L103.954 50.046H107.356V60H83.3743V57.354H83.7943C84.4943 57.354 85.0823 57.27 85.5583 57.102C86.0343 56.906 86.2723 56.5 86.2723 55.884V34.296C86.2723 33.68 86.0343 33.288 85.5583 33.12C85.0823 32.924 84.4943 32.826 83.7943 32.826H83.3743V30.18H97.5703Z" fill="#F2780D"/>
<circle cx="34" cy="31" r="5" fill="#F2780D"/>
</svg>
